<?xml version="1.0" encoding="UTF-8" standalone="no"?>
<svg xmlns="http://www.w3.org/2000/svg" viewBox="-217.5 -50 1105 1105">
  <rect x="-217.5" y="-50" width="1322.5" height="1155" fill="#a22717"/>
  <path d="m 205,995 c -154.22712,-41.9988 -203.31089,-152.711 -203.9142,-276.49972 -0.22658,-83.01529 17.98991,-157.81928 60.99381,-250.3823 14.11659,-30.38602 29.75557,-51.98842 29.75557,-51.98842 0,0 1.63426,42.96458 1.81981,58.17724 0.42484,35.15326 4.38318,70.48765 6.28507,98.0618 1.90191,27.57412 3.52775,42.03389 6.76794,45.37141 8.31171,-2.77085 84.28877,-114.1085 102.27721,-149.88005 54.27398,-102.51569 62.89717,-210.87506 60.05495,-311.58408 -1.23215,-43.66777 -9.17129,-108.51663 -12.76695,-153.80084 110.98956,84.87546 184.91178,211.59283 220.97648,332.09676 16.40792,54.82555 36.53768,152.35408 36.53768,152.35408 0,0 7.9037,-10.44113 11.77554,-18.09311 19.42447,-38.38783 20.09862,-119.96645 11.66661,-194.44942 -2.654,-23.44047 -5.99753,-49.63105 -8.82572,-67.97708 0,0 77.08035,134.03712 107.60354,227.93845 28.71602,88.34107 33.74633,132.837 33.75342,200.3172 -3.12269,109.82224 -38.10827,238.23098 -121.16637,320.39618 -35.17812,33.0283 -87.51906,45.7756 -87.51906,45.7756 0,0 28.94558,-25.0217 38.83194,-36.2538 27.59163,-31.3461 38.10964,-63.0073 38.09118,-114.6574 -3.25435,-70.59983 -23.92071,-112.73929 -53.80101,-181.51729 l 1.46863,39.77587 c 2.47125,66.94023 -24.17713,84.01861 -24.17713,84.01861 0,0 -4.9822,-14.33047 -11.62128,-49.13993 -11.03922,-57.87335 -49.21116,-131.72208 -95.48372,-184.72755 l -15.20424,-17.41601 -0.14156,51.40463 c -0.14172,69.30748 -7.2849,97.79923 -42.96727,170.8623 -16.68837,34.17347 -33.97004,73.05067 -38.40135,86.39327 -14.26523,42.951 2.03506,93.5718 27.86357,124.8199 8.87383,10.1085 17.39074,16.3364 26.23062,25.9831 -36.87749,3.1276 -68.48402,2.1571 -106.81612,-5.3792 z" fill="white"/>
</svg>